<svg width="89" height="27" viewBox="0 0 89 27" fill="none" xmlns="http://www.w3.org/2000/svg">
<g clip-path="url(#clip0_23_43)">
<path fill-rule="evenodd" clip-rule="evenodd" d="M35.2217 19.904C36.8996 20.0269 38.8549 18.6936 39.5436 17.9324C41.9379 15.2824 41.9957 11.4504 39.5852 8.67509C38.6885 7.64203 36.5807 6.50023 35.2472 6.66098H30.4192V19.8875L35.2333 19.904H35.2217ZM33.1417 17.0389V9.50958C33.8974 9.45886 34.6556 9.45886 35.4113 9.50958C36.0059 9.58011 36.573 9.80468 37.0591 10.162C39.8325 12.1005 38.6769 16.7221 35.365 17.0318C34.6249 17.085 33.8821 17.0874 33.1417 17.0389Z" fill="#008CEB"/>
<path fill-rule="evenodd" clip-rule="evenodd" d="M77.6058 19.9277H80.3584V17.0767H85.8196L85.8358 19.9135H88.5884V15.2139C88.5884 13.7955 88.7039 12.0273 88.3573 10.7436C88.0424 9.56847 87.3604 8.53093 86.4152 7.78927C85.4701 7.0476 84.3137 6.64252 83.1225 6.63583C81.9312 6.62913 80.7706 7.02118 79.8175 7.75218C78.8645 8.48317 78.1713 9.51298 77.8439 10.6845C77.4741 11.9516 77.5989 13.7695 77.5989 15.1761C77.5989 16.7647 77.5827 18.3627 77.5989 19.9513L77.6058 19.9277ZM80.3607 14.2092C80.3445 13.0272 80.222 11.7625 80.7651 10.8524C81.0035 10.4333 81.3462 10.0864 81.7582 9.84679C82.1703 9.6072 82.637 9.48352 83.111 9.48834C83.5825 9.49189 84.045 9.62054 84.4533 9.8617C84.8617 10.1029 85.2019 10.4483 85.4406 10.8642C85.9768 11.8098 85.8497 12.9918 85.8358 14.2116L80.3607 14.2092Z" fill="#008CEB"/>
<path fill-rule="evenodd" clip-rule="evenodd" d="M46.1282 19.9253H48.8715C48.8715 19.3296 48.7975 17.507 48.8969 17.0744H54.3374L54.3558 19.923H57.1038C57.0899 18.3438 57.1038 16.7671 57.1038 15.195C57.1038 13.8476 57.2263 11.9185 56.8727 10.7224C56.5558 9.54876 55.8728 8.51317 54.9275 7.77323C53.9822 7.03329 52.8264 6.62952 51.6361 6.62336C50.4458 6.61721 49.2861 7.00901 48.3335 7.73913C47.381 8.46926 46.6877 9.49772 46.3593 10.668C45.9918 11.8973 46.1166 13.7766 46.1166 15.1454C46.1166 16.7245 46.0819 18.3438 46.1166 19.9183L46.1282 19.9253ZM48.8738 14.2092C48.8553 13.0273 48.7374 11.746 49.2806 10.8548C49.5189 10.4368 49.8602 10.0901 50.2703 9.84909C50.6805 9.60811 51.1453 9.4813 51.6183 9.4813C52.0913 9.4813 52.5561 9.60811 52.9662 9.84909C53.3764 10.0901 53.7177 10.4368 53.956 10.8548C54.4945 11.8003 54.3651 13.0012 54.3558 14.2045L48.8738 14.2092Z" fill="#008CEB"/>
<path fill-rule="evenodd" clip-rule="evenodd" d="M61.9316 11.8263L61.8923 13.7954C61.8923 15.4502 61.8138 18.54 61.8923 19.8851H64.5825C64.6449 18.9395 64.4855 12.2234 64.6542 12.0083C64.6542 10.7034 65.9877 9.48827 67.3328 9.48355C68.032 9.47924 68.7052 9.75402 69.2094 10.2495C69.5515 10.5686 70.0761 11.2967 70.0669 12.0319C70.1917 12.1052 70.0923 19.1239 70.1316 19.9016H72.8241L72.8033 11.8759C72.8703 11.2471 72.5005 10.2755 72.2625 9.78377C71.821 8.84688 71.1319 8.05513 70.2732 7.4982C69.4145 6.94126 68.4205 6.64138 67.4037 6.63253C66.387 6.62367 65.3881 6.90618 64.5203 7.44808C63.6524 7.98998 62.9502 8.7696 62.4932 9.69867C62.2621 10.1833 61.8739 11.1809 61.9316 11.8263Z" fill="#008CEB"/>
<path d="M12.9446 26.1402C19.9151 26.1402 25.5658 20.3603 25.5658 13.2305C25.5658 6.10067 19.9151 0.320801 12.9446 0.320801C5.97417 0.320801 0.323486 6.10067 0.323486 13.2305C0.323486 20.3603 5.97417 26.1402 12.9446 26.1402Z" fill="#008CEB"/>
<path d="M20.2987 13.2849V16.9183C20.2987 17.1547 20.1993 17.2043 20.0052 17.0885C19.7455 16.9291 19.4752 16.7885 19.1963 16.6677C18.3539 16.3245 17.4415 16.2002 16.5408 16.306C15.5576 16.4365 14.5927 16.684 13.6657 17.0436C12.7412 17.3627 11.8353 17.7079 10.8923 17.975C10.1113 18.2122 9.29852 18.3215 8.48411 18.2989C7.58154 18.2631 6.70436 17.9833 5.94185 17.488C5.84604 17.429 5.76744 17.3448 5.71419 17.2442C5.66095 17.1436 5.63502 17.0303 5.63909 16.9159C5.63909 14.5362 5.63909 12.1565 5.63909 9.77672C5.63909 9.66088 5.63909 9.52377 5.74078 9.46467C5.84247 9.40557 5.94647 9.50249 6.03429 9.56159C6.8623 10.1343 7.84298 10.4315 8.84233 10.4126C9.5569 10.3826 10.2636 10.2481 10.9409 10.0131C11.9023 9.70816 12.8314 9.30392 13.7766 8.96114C14.5124 8.6719 15.2669 8.43494 16.0346 8.25195C16.6935 8.09413 17.3772 8.07755 18.0426 8.20327C18.7081 8.32898 19.3409 8.59427 19.9012 8.98242C20.0296 9.06292 20.1348 9.17697 20.2059 9.31283C20.277 9.44869 20.3114 9.60146 20.3056 9.75544C20.3056 10.9374 20.3056 12.1194 20.3056 13.3014L20.2987 13.2849Z" fill="#FEFEFE"/>
</g>
<defs>
<clipPath id="clip0_23_43">
<rect width="88.2857" height="25.8194" fill="white" transform="translate(0.323486 0.320801)"/>
</clipPath>
</defs>
</svg>
