<svg width="36" height="36" viewBox="0 0 36 36" fill="none" xmlns="http://www.w3.org/2000/svg">
<path d="M4.5 9H31.5V27H4.5V9ZM18 13.5C19.1935 13.5 20.3381 13.9741 21.182 14.818C22.0259 15.6619 22.5 16.8065 22.5 18C22.5 19.1935 22.0259 20.3381 21.182 21.182C20.3381 22.0259 19.1935 22.5 18 22.5C16.8065 22.5 15.6619 22.0259 14.818 21.182C13.9741 20.3381 13.5 19.1935 13.5 18C13.5 16.8065 13.9741 15.6619 14.818 14.818C15.6619 13.9741 16.8065 13.5 18 13.5ZM10.5 12C10.5 12.7956 10.1839 13.5587 9.62132 14.1213C9.05871 14.6839 8.29565 15 7.5 15V21C8.29565 21 9.05871 21.3161 9.62132 21.8787C10.1839 22.4413 10.5 23.2044 10.5 24H25.5C25.5 23.2044 25.8161 22.4413 26.3787 21.8787C26.9413 21.3161 27.7044 21 28.5 21V15C27.7044 15 26.9413 14.6839 26.3787 14.1213C25.8161 13.5587 25.5 12.7956 25.5 12H10.5Z" fill="#170055"/>
</svg>
