<svg width="24" height="24" viewBox="0 0 24 24" fill="none" xmlns="http://www.w3.org/2000/svg">
<g clip-path="url(#clip0_23_5)">
<path fill-rule="evenodd" clip-rule="evenodd" d="M7.9399 13.06C7.659 12.7788 7.50122 12.3975 7.50122 12C7.50122 11.6025 7.659 11.2213 7.9399 10.94L13.5959 5.28202C13.8773 5.00076 14.2589 4.8428 14.6568 4.8429C14.8538 4.84294 15.0488 4.88179 15.2308 4.95722C15.4128 5.03265 15.5781 5.14319 15.7174 5.28252C15.8567 5.42185 15.9671 5.58725 16.0425 5.76928C16.1178 5.9513 16.1566 6.14638 16.1565 6.34338C16.1565 6.54038 16.1176 6.73544 16.0422 6.91742C15.9668 7.09941 15.8562 7.26476 15.7169 7.40402L11.1219 12L15.7179 16.596C15.8612 16.7343 15.9756 16.8998 16.0543 17.0828C16.133 17.2657 16.1744 17.4625 16.1763 17.6617C16.1781 17.8609 16.1402 18.0584 16.0649 18.2428C15.9896 18.4272 15.8783 18.5947 15.7375 18.7356C15.5967 18.8765 15.4293 18.988 15.245 19.0635C15.0607 19.139 14.8632 19.177 14.664 19.1754C14.4648 19.1738 14.268 19.1325 14.085 19.0539C13.9019 18.9754 13.7363 18.8612 13.5979 18.718L7.9379 13.06H7.9399Z" fill="#D9D9D9"/>
</g>
<defs>
<clipPath id="clip0_23_5">
<rect width="24" height="24" fill="white"/>
</clipPath>
</defs>
</svg>
