<svg width="65" height="22" viewBox="0 0 65 22" fill="none" xmlns="http://www.w3.org/2000/svg">
<g clip-path="url(#clip0_23_37)">
<path fill-rule="evenodd" clip-rule="evenodd" d="M18.1266 17.9323C16.1433 19.8277 13.5019 20.8689 10.7658 20.8337C8.01606 20.8754 5.3592 19.8341 3.36308 17.9323C2.42387 17.0166 1.67716 15.9206 1.16722 14.7093C0.657291 13.498 0.394531 12.1961 0.394531 10.8808C0.394531 9.56544 0.657291 8.2635 1.16722 7.0522C1.67716 5.8409 2.42387 4.7449 3.36308 3.82923C5.35666 1.91617 8.01855 0.86803 10.7741 0.911065C13.5102 0.875869 16.1517 1.91703 18.135 3.81241C19.0752 4.72748 19.8229 5.82328 20.3335 7.03467C20.8441 8.24605 21.1072 9.54828 21.1072 10.8639C21.1072 12.1796 20.8441 13.4819 20.3335 14.6932C19.8229 15.9046 19.0752 17.0004 18.135 17.9155M10.7741 4.15721C9.90076 4.14872 9.03474 4.31822 8.22832 4.65547C7.4219 4.99272 6.6918 5.49074 6.08207 6.11947C5.47235 6.7482 4.99564 7.4946 4.68072 8.31365C4.36579 9.13269 4.21918 10.0074 4.24973 10.885C4.24973 11.7442 4.41805 12.595 4.7451 13.3888C5.07214 14.1826 5.55149 14.9038 6.15578 15.5114C6.76007 16.1189 7.47747 16.6009 8.26702 16.9297C9.05657 17.2585 9.9028 17.4277 10.7574 17.4277C11.612 17.4277 12.4582 17.2585 13.2478 16.9297C14.0373 16.6009 14.7547 16.1189 15.359 15.5114C15.9633 14.9038 16.4427 14.1826 16.7697 13.3888C17.0967 12.595 17.2651 11.7442 17.2651 10.885C17.2955 10.0102 17.1499 9.13835 16.837 8.32157C16.5241 7.50479 16.0504 6.75994 15.4443 6.13168C14.8382 5.50343 14.1121 5.00471 13.3096 4.66542C12.5071 4.32614 11.6447 4.15328 10.7741 4.15721ZM42.5596 3.25737L34.6049 21.0944L34.1532 21.0103C31.878 20.5982 31.418 20.0263 30.3557 17.7052L24.3917 4.64497H22.15V1.47451H30.6233V4.64497H28.5991L33.392 15.4514L38.0428 4.64497H35.5334V1.47451H42.5596V3.25737ZM61.7982 17.9323C59.7894 19.7976 57.1552 20.8334 54.4207 20.8334C51.6861 20.8334 49.052 19.7976 47.0431 17.9323C46.1039 17.0166 45.3572 15.9206 44.8472 14.7093C44.3373 13.498 44.0745 12.1961 44.0745 10.8808C44.0745 9.56544 44.3373 8.2635 44.8472 7.0522C45.3572 5.8409 46.1039 4.7449 47.0431 3.82923C49.052 1.96395 51.6861 0.928109 54.4207 0.928109C57.1552 0.928109 59.7894 1.96395 61.7982 3.82923C62.7406 4.74309 63.4901 5.8385 64.002 7.05004C64.514 8.26159 64.7778 9.56443 64.7778 10.8808C64.7778 12.1971 64.514 13.4999 64.002 14.7115C63.4901 15.923 62.7406 17.0184 61.7982 17.9323ZM54.4792 4.15721C53.6055 4.14877 52.7391 4.31823 51.9322 4.65539C51.1254 4.99255 50.3947 5.49042 49.7844 6.11903C49.174 6.74763 48.6965 7.49395 48.3806 8.31302C48.0647 9.1321 47.9171 10.007 47.9465 10.885C47.9465 11.7442 48.1148 12.595 48.4418 13.3888C48.7689 14.1826 49.2482 14.9038 49.8525 15.5114C50.4568 16.1189 51.1742 16.6009 51.9637 16.9297C52.7533 17.2585 53.5995 17.4277 54.4541 17.4277C55.3087 17.4277 56.1549 17.2585 56.9445 16.9297C57.734 16.6009 58.4514 16.1189 59.0557 15.5114C59.66 14.9038 60.1394 14.1826 60.4664 13.3888C60.7935 12.595 60.9618 11.7442 60.9618 10.885C60.9934 10.0107 60.8488 9.13895 60.5369 8.3222C60.225 7.50545 59.7521 6.76051 59.1466 6.13213C58.5411 5.50375 57.8155 5.00489 57.0135 4.66551C56.2114 4.32613 55.3494 4.15323 54.4792 4.15721Z" fill="#4B2489"/>
</g>
<defs>
<clipPath id="clip0_23_37">
<rect width="64.4075" height="20.1833" fill="white" transform="translate(0.4021 0.911011)"/>
</clipPath>
</defs>
</svg>
